<svg width="314" height="314" viewBox="0 0 314 314" fill="none" xmlns="http://www.w3.org/2000/svg">
<g filter="url(#filter0_d_19_6)">
<mask id="mask0_19_6" style="mask-type:alpha" maskUnits="userSpaceOnUse" x="36" y="36" width="242" height="242">
<circle cx="156.956" cy="156.956" r="118.864" transform="rotate(22 156.956 156.956)" fill="#3C6E71" stroke="black" stroke-width="3.41085"/>
</mask>
<g mask="url(#mask0_19_6)">
<rect x="38.2896" y="-36.3253" width="364.467" height="260.052" transform="rotate(22 38.2896 -36.3253)" fill="#284B63"/>
<rect x="159.578" y="12.6785" width="101.263" height="260.052" transform="rotate(22 159.578 12.6785)" fill="#353535"/>
<path d="M177.579 89.2681C177.076 89.293 176.741 89.4483 176.252 89.7712L176.249 89.7735C176.005 89.9323 175.775 90.1343 175.568 90.374L175.567 90.3755C175.511 90.439 175.457 90.5089 175.403 90.5855L175.396 90.5957L175.388 90.6056L153.192 119.577C152.457 120.576 152.304 121.926 152.806 123.075C153.307 124.223 154.361 124.954 155.521 125.004C155.521 125.004 155.521 125.004 155.521 125.004L166.418 125.469L167.174 125.501L167.029 126.244L162.853 147.549L162.851 147.559L162.851 147.559C162.52 149.118 163.26 150.68 164.579 151.335C164.579 151.335 164.579 151.335 164.579 151.335L164.289 151.917C164.767 152.155 165.273 152.279 165.775 152.296C166.963 152.338 167.958 151.783 168.728 150.745L177.579 89.2681ZM177.579 89.2681C177.597 89.2673 177.615 89.2667 177.633 89.2662L177.83 89.273C177.877 89.2747 177.907 89.2758 177.935 89.2781L177.935 89.2781L177.942 89.2785C179.594 89.3933 180.923 90.8901 180.859 92.7402C180.849 93.0167 180.809 93.2797 180.741 93.5288L180.736 93.5459L180.732 93.5633L176.683 112.281L176.519 113.04L177.295 113.068L188.192 113.469C188.192 113.469 188.193 113.469 188.193 113.469C189.351 113.518 190.404 114.249 190.906 115.396C191.407 116.546 191.254 117.9 190.516 118.898L190.516 118.898L190.509 118.909L168.202 150.363L177.579 89.2681ZM178.346 92.7593L177.193 92.2296L155.143 121.313L154.389 122.307L155.636 122.356L170.307 122.923L165.282 148.159L166.451 148.659L188.586 117.194L189.274 116.216L188.08 116.17L173.42 115.607L178.346 92.7593ZM171.986 116.09L171.823 116.846L172.597 116.876L186.835 117.423L167.157 145.396L171.731 122.43L171.88 121.683L171.119 121.654L156.932 121.105L176.458 95.3513L171.986 116.09Z" fill="#E6B402" stroke="black" stroke-width="1.3"/>
<path d="M150.744 155.907C150.24 155.932 149.904 156.086 149.416 156.407L149.413 156.409C149.169 156.566 148.94 156.767 148.732 157.004L148.731 157.006C148.676 157.069 148.622 157.138 148.568 157.214L148.561 157.224L148.553 157.234L126.365 185.98C125.631 186.97 125.479 188.305 125.98 189.442L125.386 189.704L125.98 189.443C126.481 190.58 127.534 191.307 128.696 191.357C128.696 191.357 128.696 191.357 128.696 191.357L139.594 191.822L140.351 191.854L140.204 192.597L136.034 213.74L136.032 213.75L136.032 213.75C135.702 215.292 136.439 216.84 137.76 217.491C137.76 217.491 137.76 217.491 137.76 217.491L137.472 218.074C137.95 218.31 138.456 218.433 138.958 218.45C140.146 218.492 141.141 217.941 141.91 216.911L150.744 155.907ZM150.744 155.907C150.762 155.906 150.781 155.906 150.799 155.905L150.996 155.912C151.043 155.914 151.072 155.915 151.101 155.917L151.101 155.917L151.108 155.918C152.764 156.032 154.089 157.52 154.025 159.349C154.016 159.623 153.976 159.883 153.908 160.129L153.903 160.147L153.9 160.164L149.855 178.739L149.69 179.499L150.467 179.527L161.364 179.928C161.364 179.928 161.365 179.928 161.365 179.928C162.526 179.977 163.578 180.704 164.079 181.84L150.744 155.907ZM151.513 159.369L150.361 158.837L128.319 187.694L127.558 188.69L128.81 188.739L143.481 189.306L138.463 214.342L139.631 214.846L161.758 183.624L162.452 182.645L161.253 182.599L146.594 182.036L151.513 159.369ZM145.16 182.518L144.995 183.275L145.77 183.305L160.003 183.852L140.339 211.598L144.906 188.813L145.055 188.066L144.293 188.036L130.112 187.488L149.624 161.943L145.16 182.518ZM163.684 185.318L141.385 216.528L164.079 181.841C164.579 182.978 164.428 184.318 163.691 185.307L163.691 185.307L163.684 185.318Z" fill="#E6B402" stroke="black" stroke-width="1.3"/>
<path d="M124.004 222.092C123.499 222.117 123.164 222.271 122.676 222.592L122.672 222.594C122.429 222.751 122.199 222.952 121.992 223.189L121.991 223.191C121.935 223.254 121.882 223.323 121.828 223.399L121.82 223.409L121.813 223.419L99.6244 252.166C98.8904 253.155 98.7389 254.49 99.2397 255.628L98.6454 255.889L99.2397 255.628C99.7405 256.765 100.794 257.492 101.956 257.543C101.956 257.543 101.956 257.543 101.956 257.543L112.854 258.007L113.61 258.039L113.464 258.782L109.294 279.925L109.292 279.935L109.292 279.935C108.962 281.477 109.699 283.025 111.019 283.676C111.019 283.676 111.019 283.676 111.019 283.676L110.731 284.259C111.209 284.495 111.715 284.618 112.217 284.636C113.405 284.677 114.4 284.127 115.17 283.096L124.004 222.092ZM124.004 222.092C124.022 222.092 124.04 222.091 124.058 222.09L124.255 222.097C124.303 222.099 124.332 222.1 124.361 222.102L124.361 222.102L124.367 222.103C126.023 222.217 127.349 223.705 127.285 225.534C127.275 225.808 127.236 226.068 127.168 226.314L127.163 226.332L127.159 226.349L123.115 244.925L122.95 245.684L123.726 245.713L134.623 246.113C134.624 246.113 134.624 246.113 134.625 246.113C135.785 246.162 136.838 246.889 137.338 248.026L124.004 222.092ZM124.773 225.554L123.621 225.022L101.578 253.88L100.818 254.875L102.07 254.924L116.741 255.491L111.723 280.527L112.891 281.031L135.018 249.809L135.712 248.83L134.512 248.784L119.854 248.221L124.773 225.554ZM118.419 248.703L118.255 249.46L119.029 249.49L133.263 250.037L113.599 277.784L118.165 254.999L118.315 254.251L117.553 254.221L103.372 253.673L122.884 228.128L118.419 248.703ZM136.943 251.503L114.645 282.713L137.339 248.026C137.839 249.163 137.687 250.503 136.951 251.492L136.951 251.492L136.943 251.503Z" fill="#E6B402" stroke="black" stroke-width="1.3"/>
<path d="M204.49 22.6599C203.987 22.6849 203.652 22.8401 203.163 23.1631L203.16 23.1654C202.916 23.3241 202.687 23.5261 202.479 23.7658L202.478 23.7673C202.423 23.8308 202.369 23.9007 202.315 23.9773L202.307 23.9875L202.3 23.9975L180.104 52.9691C179.368 53.968 179.215 55.3176 179.717 56.4664C180.219 57.6149 181.273 58.3459 182.432 58.3963C182.432 58.3963 182.432 58.3963 182.432 58.3963L193.33 58.8611L194.085 58.8933L193.94 59.6355L189.765 80.9408L189.763 80.951L189.762 80.951C189.431 82.5099 190.171 84.0716 191.49 84.7272C191.49 84.7272 191.49 84.7272 191.49 84.7272L191.201 85.3093C191.678 85.5466 192.184 85.6706 192.687 85.6881C193.874 85.7296 194.869 85.1746 195.639 84.1364L204.49 22.6599ZM204.49 22.6599C204.508 22.6591 204.527 22.6585 204.545 22.658L204.741 22.6649C204.789 22.6665 204.818 22.6677 204.847 22.6699L204.847 22.67L204.853 22.6704C206.505 22.7851 207.835 24.2819 207.77 26.132C207.76 26.4085 207.721 26.6715 207.652 26.9206L207.647 26.9378L207.644 26.9552L203.595 45.6733L203.43 46.4317L204.206 46.4603L215.103 46.8608C215.104 46.8609 215.104 46.8609 215.105 46.8609C216.263 46.9102 217.315 47.6405 217.817 48.7883C218.318 49.9374 218.166 51.2914 217.428 52.2903L217.427 52.2902L217.42 52.3006L195.113 83.7544L204.49 22.6599ZM205.258 26.1511L204.105 25.6214L182.054 54.7052L181.3 55.6992L182.547 55.7474L197.219 56.3151L192.193 81.5504L193.362 82.0513L215.498 50.5854L216.185 49.6078L214.991 49.5619L200.332 48.9986L205.258 26.1511ZM198.898 49.4814L198.734 50.2382L199.508 50.2679L213.747 50.8151L194.069 78.7873L198.642 55.822L198.791 55.075L198.03 55.0455L183.844 54.4966L203.369 28.7431L198.898 49.4814Z" fill="#E6B402" stroke="black" stroke-width="1.3"/>
<line x1="156.526" y1="11.4455" x2="59.1089" y2="252.561" stroke="black" stroke-width="4.44893"/>
<line x1="252.973" y1="50.4123" x2="155.555" y2="291.528" stroke="black" stroke-width="4.44893"/>
</g>
<circle cx="157.153" cy="157.153" r="123.279" stroke="black" stroke-width="5.81188"/>
</g>
<defs>
<filter id="filter0_d_19_6" x="16.0689" y="16.0689" width="282.169" height="282.169" filterUnits="userSpaceOnUse" color-interpolation-filters="sRGB">
<feFlood flood-opacity="0" result="BackgroundImageFix"/>
<feColorMatrix in="SourceAlpha" type="matrix" values="0 0 0 0 0 0 0 0 0 0 0 0 0 0 0 0 0 0 127 0" result="hardAlpha"/>
<feOffset/>
<feGaussianBlur stdDeviation="7.45"/>
<feComposite in2="hardAlpha" operator="out"/>
<feColorMatrix type="matrix" values="0 0 0 0 0 0 0 0 0 0 0 0 0 0 0 0 0 0 0.43 0"/>
<feBlend mode="normal" in2="BackgroundImageFix" result="effect1_dropShadow_19_6"/>
<feBlend mode="normal" in="SourceGraphic" in2="effect1_dropShadow_19_6" result="shape"/>
</filter>
</defs>
</svg>
