<svg width="314" height="314" viewBox="0 0 314 314" fill="none" xmlns="http://www.w3.org/2000/svg">
<g filter="url(#filter0_d_61_2)">
<mask id="mask0_61_2" style="mask-type:alpha" maskUnits="userSpaceOnUse" x="36" y="36" width="242" height="242">
<circle cx="156.956" cy="156.956" r="118.864" transform="rotate(22 156.956 156.956)" fill="#3C6E71" stroke="black" stroke-width="3.41085"/>
</mask>
<g mask="url(#mask0_61_2)">
<rect x="38.2896" y="-36.3254" width="364.467" height="260.052" transform="rotate(22 38.2896 -36.3254)" fill="#284B63"/>
<rect x="159.578" y="12.6785" width="101.263" height="260.052" transform="rotate(22 159.578 12.6785)" fill="#353535"/>
<path d="M178.523 88.0443L178.525 87.9904L177.876 87.9677C177.757 87.9636 177.637 87.9641 177.519 87.9694L177.517 87.9695C176.684 88.0104 176.119 88.3006 175.537 88.6857C175.186 88.9149 174.866 89.1984 174.586 89.5224C174.498 89.6226 174.42 89.7246 174.349 89.8245L152.157 118.791L152.157 118.791L152.15 118.8C151.134 120.175 150.927 122.02 151.615 123.595C152.303 125.172 153.781 126.23 155.464 126.303L155.465 126.303L165.607 126.736L161.578 147.294C161.135 149.393 162.117 151.564 164 152.499L164.283 151.931L164 152.499C164.561 152.778 165.158 152.925 165.753 152.946C167.193 152.996 168.378 152.308 169.25 151.132L169.25 151.132L169.258 151.12L191.566 119.666C192.578 118.291 192.782 116.447 192.097 114.877L192.097 114.876C191.408 113.3 189.931 112.241 188.246 112.17L188.243 112.17L178.118 111.798L181.999 93.8548C182.093 93.5094 182.145 93.1519 182.158 92.7855C182.239 90.472 180.686 88.4484 178.523 88.0443Z" fill="#E6B402" stroke="black" stroke-width="1.3"/>
<path d="M151.689 154.683L151.691 154.63L151.041 154.607C150.923 154.603 150.803 154.603 150.685 154.609L150.683 154.609C149.852 154.649 149.287 154.936 148.705 155.318C148.354 155.546 148.034 155.827 147.753 156.149C147.666 156.248 147.588 156.35 147.517 156.449L125.332 185.191L125.332 185.191L125.325 185.2C124.309 186.566 124.101 188.4 124.79 189.966C125.481 191.534 126.959 192.583 128.64 192.656L128.641 192.656L138.782 193.088L134.76 213.483C134.316 215.572 135.302 217.728 137.184 218.657L137.184 218.657C137.745 218.934 138.342 219.079 138.935 219.1C140.373 219.15 141.558 218.469 142.431 217.3L142.431 217.3L142.439 217.289L164.738 186.078C165.752 184.712 165.956 182.879 165.269 181.317L165.269 181.317C164.579 179.749 163.1 178.699 161.418 178.629L161.415 178.629L151.291 178.257L155.166 160.457C155.26 160.114 155.312 159.759 155.325 159.394C155.405 157.092 153.848 155.085 151.689 154.683Z" fill="#E6B402" stroke="black" stroke-width="1.3"/>
<path d="M124.949 220.868L124.95 220.815L124.301 220.792C124.182 220.788 124.063 220.788 123.945 220.794L123.942 220.794C123.111 220.834 122.547 221.122 121.964 221.504C121.613 221.731 121.293 222.012 121.013 222.334C120.926 222.434 120.847 222.535 120.776 222.634L98.5917 251.376L98.5916 251.376L98.5849 251.385C97.5681 252.751 97.3604 254.585 98.05 256.152C98.7403 257.719 100.219 258.769 101.9 258.841L101.9 258.841L112.042 259.273L108.02 279.668C107.575 281.757 108.561 283.913 110.444 284.842L110.444 284.842C111.005 285.119 111.601 285.264 112.195 285.285C113.633 285.335 114.818 284.654 115.69 283.485L115.69 283.485L115.698 283.474L137.998 252.263C139.011 250.898 139.215 249.064 138.529 247.502L138.528 247.502C137.838 245.934 136.359 244.885 134.678 244.814L134.674 244.814L124.551 244.442L128.426 226.643C128.519 226.299 128.571 225.944 128.584 225.58C128.665 223.277 127.108 221.27 124.949 220.868Z" fill="#E6B402" stroke="black" stroke-width="1.3"/>
<path d="M205.435 21.4363L205.437 21.3824L204.787 21.3597C204.668 21.3556 204.549 21.3561 204.431 21.3614L204.428 21.3615C203.596 21.4024 203.031 21.6926 202.448 22.0776C202.097 22.3069 201.777 22.5904 201.497 22.9144C201.41 23.0145 201.332 23.1166 201.261 23.2165L179.068 52.1832L179.068 52.1832L179.061 52.1923C178.046 53.5668 177.838 55.4118 178.526 56.9868C179.215 58.5638 180.692 59.6221 182.376 59.6951L182.376 59.6952L192.519 60.1278L188.49 80.686C188.046 82.7851 189.028 84.9555 190.911 85.8914L191.194 85.3225L190.911 85.8914C191.473 86.1703 192.07 86.317 192.664 86.3378C194.104 86.3881 195.289 85.6998 196.161 84.5236L196.161 84.5236L196.169 84.5124L218.477 53.0577C219.49 51.6832 219.693 49.839 219.009 48.2687L219.008 48.2684C218.32 46.6915 216.842 45.6327 215.158 45.562L215.154 45.5619L205.029 45.1897L208.911 27.2468C209.004 26.9014 209.056 26.5438 209.069 26.1775C209.15 23.864 207.597 21.8403 205.435 21.4363Z" fill="#E6B402" stroke="black" stroke-width="1.3"/>
<line x1="157.245" y1="11.736" x2="59.828" y2="252.852" stroke="black" stroke-width="6"/>
<line x1="253.692" y1="50.7027" x2="156.274" y2="291.819" stroke="black" stroke-width="6"/>
</g>
<circle cx="157.153" cy="157.153" r="123.279" stroke="white" stroke-width="5.81188"/>
</g>
<defs>
<filter id="filter0_d_61_2" x="16.0689" y="16.0689" width="282.169" height="282.169" filterUnits="userSpaceOnUse" color-interpolation-filters="sRGB">
<feFlood flood-opacity="0" result="BackgroundImageFix"/>
<feColorMatrix in="SourceAlpha" type="matrix" values="0 0 0 0 0 0 0 0 0 0 0 0 0 0 0 0 0 0 127 0" result="hardAlpha"/>
<feOffset/>
<feGaussianBlur stdDeviation="7.45"/>
<feComposite in2="hardAlpha" operator="out"/>
<feColorMatrix type="matrix" values="0 0 0 0 0 0 0 0 0 0 0 0 0 0 0 0 0 0 0.43 0"/>
<feBlend mode="normal" in2="BackgroundImageFix" result="effect1_dropShadow_61_2"/>
<feBlend mode="normal" in="SourceGraphic" in2="effect1_dropShadow_61_2" result="shape"/>
</filter>
</defs>
</svg>
